<mxfile host="65bd71144e">
    <diagram id="Fq_jOeNokOzl2JtR9ZAV" name="Page-1">
        <mxGraphModel dx="1589" dy="1099" grid="0" gridSize="10" guides="1" tooltips="1" connect="1" arrows="1" fold="1" page="0" pageScale="1" pageWidth="850" pageHeight="1100" math="0" shadow="0">
            <root>
                <mxCell id="0"/>
                <mxCell id="1" parent="0"/>
                <mxCell id="4" value="" style="edgeStyle=none;html=1;fontFamily=Times New Roman;" edge="1" parent="1" source="2" target="3">
                    <mxGeometry relative="1" as="geometry"/>
                </mxCell>
                <mxCell id="8" value="" style="edgeStyle=none;html=1;fontFamily=Times New Roman;" edge="1" parent="1" source="2" target="7">
                    <mxGeometry relative="1" as="geometry"/>
                </mxCell>
                <mxCell id="10" value="" style="edgeStyle=none;html=1;fontFamily=Times New Roman;" edge="1" parent="1" source="2" target="9">
                    <mxGeometry relative="1" as="geometry"/>
                </mxCell>
                <mxCell id="11" style="edgeStyle=none;html=1;exitX=0.25;exitY=0;exitDx=0;exitDy=0;fontFamily=Times New Roman;" edge="1" parent="1" source="2">
                    <mxGeometry relative="1" as="geometry">
                        <mxPoint x="140" y="60" as="targetPoint"/>
                    </mxGeometry>
                </mxCell>
                <mxCell id="12" style="edgeStyle=none;html=1;exitX=0;exitY=0.25;exitDx=0;exitDy=0;fontFamily=Times New Roman;" edge="1" parent="1" source="2">
                    <mxGeometry relative="1" as="geometry">
                        <mxPoint x="80" y="80" as="targetPoint"/>
                    </mxGeometry>
                </mxCell>
                <mxCell id="13" style="edgeStyle=none;html=1;exitX=0;exitY=0.75;exitDx=0;exitDy=0;fontFamily=Times New Roman;" edge="1" parent="1" source="2">
                    <mxGeometry relative="1" as="geometry">
                        <mxPoint x="80" y="220" as="targetPoint"/>
                    </mxGeometry>
                </mxCell>
                <mxCell id="14" style="edgeStyle=none;html=1;exitX=0.25;exitY=1;exitDx=0;exitDy=0;fontFamily=Times New Roman;" edge="1" parent="1" source="2">
                    <mxGeometry relative="1" as="geometry">
                        <mxPoint x="130" y="260" as="targetPoint"/>
                    </mxGeometry>
                </mxCell>
                <mxCell id="20" style="edgeStyle=none;html=1;exitX=0.75;exitY=0;exitDx=0;exitDy=0;fontFamily=Times New Roman;" edge="1" parent="1" source="2">
                    <mxGeometry relative="1" as="geometry">
                        <mxPoint x="290" y="50" as="targetPoint"/>
                    </mxGeometry>
                </mxCell>
                <mxCell id="21" style="edgeStyle=none;html=1;exitX=0.75;exitY=1;exitDx=0;exitDy=0;fontFamily=Times New Roman;" edge="1" parent="1" source="2">
                    <mxGeometry relative="1" as="geometry">
                        <mxPoint x="290" y="260" as="targetPoint"/>
                    </mxGeometry>
                </mxCell>
                <mxCell id="24" style="edgeStyle=none;html=1;exitX=1;exitY=0;exitDx=0;exitDy=0;fontFamily=Times New Roman;" edge="1" parent="1" source="2">
                    <mxGeometry relative="1" as="geometry">
                        <mxPoint x="340" y="100" as="targetPoint"/>
                    </mxGeometry>
                </mxCell>
                <mxCell id="2" value="add games" style="whiteSpace=wrap;html=1;fontFamily=Times New Roman;" vertex="1" parent="1">
                    <mxGeometry x="160" y="130" width="120" height="60" as="geometry"/>
                </mxCell>
                <mxCell id="3" value="id" style="ellipse;whiteSpace=wrap;html=1;fontFamily=Times New Roman;" vertex="1" parent="1">
                    <mxGeometry x="180" y="-20" width="90" height="80" as="geometry"/>
                </mxCell>
                <mxCell id="7" value="photo1" style="ellipse;whiteSpace=wrap;html=1;fontFamily=Times New Roman;" vertex="1" parent="1">
                    <mxGeometry x="-20" y="120" width="90" height="80" as="geometry"/>
                </mxCell>
                <mxCell id="9" value="exe_file" style="ellipse;whiteSpace=wrap;html=1;fontFamily=Times New Roman;" vertex="1" parent="1">
                    <mxGeometry x="180" y="270" width="85" height="80" as="geometry"/>
                </mxCell>
                <mxCell id="15" value="gamename" style="ellipse;whiteSpace=wrap;html=1;fontFamily=Times New Roman;" vertex="1" parent="1">
                    <mxGeometry x="80" y="-20" width="90" height="80" as="geometry"/>
                </mxCell>
                <mxCell id="17" value="photo3" style="ellipse;whiteSpace=wrap;html=1;fontFamily=Times New Roman;" vertex="1" parent="1">
                    <mxGeometry x="80" y="260" width="90" height="80" as="geometry"/>
                </mxCell>
                <mxCell id="18" value="photo2" style="ellipse;whiteSpace=wrap;html=1;fontFamily=Times New Roman;" vertex="1" parent="1">
                    <mxGeometry x="5" y="210" width="85" height="80" as="geometry"/>
                </mxCell>
                <mxCell id="19" value="genre_id" style="ellipse;whiteSpace=wrap;html=1;fontFamily=Times New Roman;" vertex="1" parent="1">
                    <mxGeometry y="20" width="90" height="80" as="geometry"/>
                </mxCell>
                <mxCell id="22" value="description" style="ellipse;whiteSpace=wrap;html=1;fontFamily=Times New Roman;" vertex="1" parent="1">
                    <mxGeometry x="280" y="-20" width="100" height="80" as="geometry"/>
                </mxCell>
                <mxCell id="23" value="relase_date" style="ellipse;whiteSpace=wrap;html=1;fontFamily=Times New Roman;" vertex="1" parent="1">
                    <mxGeometry x="270" y="260" width="90" height="80" as="geometry"/>
                </mxCell>
                <mxCell id="25" value="pricing" style="ellipse;whiteSpace=wrap;html=1;fontFamily=Times New Roman;" vertex="1" parent="1">
                    <mxGeometry x="340" y="50" width="100" height="80" as="geometry"/>
                </mxCell>
                <mxCell id="187" style="edgeStyle=none;html=1;exitX=0;exitY=0.5;exitDx=0;exitDy=0;fontFamily=Times New Roman;" edge="1" parent="1" source="184">
                    <mxGeometry relative="1" as="geometry">
                        <mxPoint x="285.28571428571445" y="158.1428571428571" as="targetPoint"/>
                    </mxGeometry>
                </mxCell>
                <mxCell id="207" value="" style="edgeStyle=none;html=1;fontFamily=Times New Roman;" edge="1" parent="1" source="184" target="206">
                    <mxGeometry relative="1" as="geometry"/>
                </mxCell>
                <mxCell id="213" value="" style="edgeStyle=none;html=1;fontFamily=Times New Roman;" edge="1" parent="1" source="184" target="212">
                    <mxGeometry relative="1" as="geometry"/>
                </mxCell>
                <mxCell id="184" value="handle" style="rhombus;whiteSpace=wrap;html=1;fontFamily=Times New Roman;" vertex="1" parent="1">
                    <mxGeometry x="507" y="106" width="119" height="104" as="geometry"/>
                </mxCell>
                <mxCell id="189" value="" style="edgeStyle=none;html=1;fontFamily=Times New Roman;entryX=1;entryY=0.5;entryDx=0;entryDy=0;" edge="1" parent="1" source="185" target="184">
                    <mxGeometry relative="1" as="geometry">
                        <mxPoint x="715.5" y="158" as="targetPoint"/>
                    </mxGeometry>
                </mxCell>
                <mxCell id="185" value="admin dashboard" style="whiteSpace=wrap;html=1;fontFamily=Times New Roman;" vertex="1" parent="1">
                    <mxGeometry x="732" y="128" width="120" height="60" as="geometry"/>
                </mxCell>
                <mxCell id="190" value="id" style="ellipse;whiteSpace=wrap;html=1;fontFamily=Times New Roman;" vertex="1" parent="1">
                    <mxGeometry x="930" y="547" width="106" height="80" as="geometry"/>
                </mxCell>
                <mxCell id="192" value="username" style="ellipse;whiteSpace=wrap;html=1;fontFamily=Times New Roman;" vertex="1" parent="1">
                    <mxGeometry x="941" y="418" width="100" height="80" as="geometry"/>
                </mxCell>
                <mxCell id="194" value="password" style="ellipse;whiteSpace=wrap;html=1;fontFamily=Times New Roman;" vertex="1" parent="1">
                    <mxGeometry x="739" y="552" width="106" height="80" as="geometry"/>
                </mxCell>
                <mxCell id="202" value="" style="edgeStyle=none;html=1;fontFamily=Times New Roman;" edge="1" parent="1" source="197" target="185">
                    <mxGeometry relative="1" as="geometry"/>
                </mxCell>
                <mxCell id="197" value="manage" style="rhombus;whiteSpace=wrap;html=1;fontFamily=Times New Roman;" vertex="1" parent="1">
                    <mxGeometry x="752" y="258" width="80" height="80" as="geometry"/>
                </mxCell>
                <mxCell id="201" value="" style="edgeStyle=none;html=1;fontFamily=Times New Roman;" edge="1" parent="1" source="199" target="197">
                    <mxGeometry relative="1" as="geometry"/>
                </mxCell>
                <mxCell id="203" value="" style="edgeStyle=none;html=1;fontFamily=Times New Roman;" edge="1" parent="1" source="199" target="194">
                    <mxGeometry relative="1" as="geometry"/>
                </mxCell>
                <mxCell id="204" value="" style="edgeStyle=none;html=1;fontFamily=Times New Roman;" edge="1" parent="1" source="199" target="192">
                    <mxGeometry relative="1" as="geometry"/>
                </mxCell>
                <mxCell id="205" value="" style="edgeStyle=none;html=1;fontFamily=Times New Roman;" edge="1" parent="1" source="199" target="190">
                    <mxGeometry relative="1" as="geometry"/>
                </mxCell>
                <mxCell id="199" value="admin_login" style="whiteSpace=wrap;html=1;fontFamily=Times New Roman;" vertex="1" parent="1">
                    <mxGeometry x="732" y="428" width="120" height="60" as="geometry"/>
                </mxCell>
                <mxCell id="209" value="" style="edgeStyle=none;html=1;fontFamily=Times New Roman;" edge="1" parent="1" source="206" target="208">
                    <mxGeometry relative="1" as="geometry"/>
                </mxCell>
                <mxCell id="211" value="" style="edgeStyle=none;html=1;fontFamily=Times New Roman;" edge="1" parent="1" source="206" target="210">
                    <mxGeometry relative="1" as="geometry"/>
                </mxCell>
                <mxCell id="215" value="" style="edgeStyle=none;html=1;fontFamily=Times New Roman;" edge="1" parent="1" source="206" target="214">
                    <mxGeometry relative="1" as="geometry"/>
                </mxCell>
                <mxCell id="206" value="game_cate" style="whiteSpace=wrap;html=1;fontFamily=Times New Roman;" vertex="1" parent="1">
                    <mxGeometry x="506.5" y="312" width="120" height="60" as="geometry"/>
                </mxCell>
                <mxCell id="208" value="id" style="ellipse;whiteSpace=wrap;html=1;fontFamily=Times New Roman;" vertex="1" parent="1">
                    <mxGeometry x="659" y="302" width="93" height="80" as="geometry"/>
                </mxCell>
                <mxCell id="210" value="name" style="ellipse;whiteSpace=wrap;html=1;fontFamily=Times New Roman;" vertex="1" parent="1">
                    <mxGeometry x="383" y="302" width="91" height="80" as="geometry"/>
                </mxCell>
                <mxCell id="217" value="" style="edgeStyle=none;html=1;fontFamily=Times New Roman;" edge="1" parent="1" source="212" target="216">
                    <mxGeometry relative="1" as="geometry"/>
                </mxCell>
                <mxCell id="219" value="" style="edgeStyle=none;html=1;fontFamily=Times New Roman;" edge="1" parent="1" source="212" target="218">
                    <mxGeometry relative="1" as="geometry"/>
                </mxCell>
                <mxCell id="212" value="view_game" style="whiteSpace=wrap;html=1;fontFamily=Times New Roman;" vertex="1" parent="1">
                    <mxGeometry x="506.5" y="-56" width="120" height="60" as="geometry"/>
                </mxCell>
                <mxCell id="214" value="delete" style="ellipse;whiteSpace=wrap;html=1;fontFamily=Times New Roman;" vertex="1" parent="1">
                    <mxGeometry x="520" y="415" width="98.5" height="80" as="geometry"/>
                </mxCell>
                <mxCell id="216" value="edit" style="ellipse;whiteSpace=wrap;html=1;fontFamily=Times New Roman;" vertex="1" parent="1">
                    <mxGeometry x="526.5" y="-206" width="110.5" height="80" as="geometry"/>
                </mxCell>
                <mxCell id="218" value="delete" style="ellipse;whiteSpace=wrap;html=1;fontFamily=Times New Roman;" vertex="1" parent="1">
                    <mxGeometry x="726.5" y="-66" width="110.5" height="80" as="geometry"/>
                </mxCell>
            </root>
        </mxGraphModel>
    </diagram>
</mxfile>